<svg width="512" height="512" viewBox="0 0 512 512"><path d="m238 146c0-15-6-28-16-39-11-10-24-16-39-16-15 0-28 6-39 16-11 11-16 24-16 39 0 8 2 16 5 24-7-4-15-5-23-5-16 0-28 5-39 16-11 10-16 23-16 38 0 16 5 29 16 39 11 11 23 16 39 16 15 0 28-5 39-16 10-10 16-23 16-39 0-8-2-15-6-23 8 3 16 5 24 5 15 0 28-5 39-16 10-11 16-23 16-39z m243 201c0 4-5 10-14 19-9 10-16 14-19 14-2 0-4-1-8-4-4-3-7-6-11-10-3-3-6-7-11-11-4-5-6-7-7-8l-27 28 63 63c5 5 8 12 8 19 0 8-4 16-11 23-8 8-15 11-23 11-8 0-15-2-20-8l-192-191c-33 25-68 37-104 37-31 0-56-10-76-29-19-20-29-45-29-76 0-30 9-60 27-89 18-30 42-53 71-71 29-18 59-27 89-27 31 0 57 9 76 29 20 19 30 45 30 76 0 36-13 70-38 104l102 101 27-27c-1-1-3-3-7-7-5-4-9-8-12-11-3-3-6-7-9-10-3-4-5-7-5-9 0-3 5-9 14-18 9-10 16-14 19-14 2 0 5 1 7 2 1 2 5 6 13 13 7 7 15 15 23 23 8 8 16 16 25 24 8 9 15 16 21 23 5 6 8 10 8 11z" transform="scale(0.046875 0.046875)"></path></svg>
