<svg width="512" height="512" viewBox="0 0 512 512"><path d="m402 174c-10 5-22 8-34 10 13-8 22-19 26-33-12 7-25 12-38 14-12-12-26-19-44-19-16 0-30 6-42 18-12 12-18 26-18 42 0 6 1 10 2 14-25-1-48-8-69-19-22-11-40-25-55-44-6 10-9 20-9 30 0 22 9 39 26 50-9 0-18-2-28-7l0 1c0 14 5 27 14 38 10 11 21 18 35 20-5 2-10 3-14 3-3 0-6-1-11-1 4 12 11 21 21 29 10 8 22 12 35 12-23 17-47 26-75 26-5 0-10 0-14-1 28 18 59 27 92 27 21 0 41-3 60-10 18-7 34-16 48-27 13-12 25-25 34-39 10-15 17-31 22-47 4-16 7-32 7-48 0-3-1-6-1-8 12-8 22-19 30-31z m73-55l0 274c0 23-8 42-24 58-16 16-35 24-58 24l-274 0c-23 0-42-8-58-24-16-16-24-35-24-58l0-274c0-23 8-42 24-58 16-16 35-24 58-24l274 0c23 0 42 8 58 24 16 16 24 35 24 58z" transform="scale(0.046875 0.046875)"></path></svg>
